# This file is brought to you by Roblox Corporation
# Generated by Roblox Studio

mtllib SM_Bread.mtl

g Bread1

v 0.180432 0.167794 0.606096 
v 0.223954 0.192575 9.78936e-09 
v 0.000104926 0.2 4.58647e-12 
v -0.00920967 0.17467 0.611402 
v 0.0331662 0.17467 -0.611779 
v -0.13691 0.167794 -0.607769 
v -0.223609 0.192575 -9.77424e-09 
v -0.446857 -0.0378087 -0.312516 
v -0.486703 -0.0378087 -2.12745e-08 
v -0.399646 0.111932 -6.2765e-05 
v -0.362159 0.111794 -0.309378 
v -0.166689 0.109044 0.825736 
v -0.162234 -0.0378086 0.937548 
v 0.126527 -0.0378086 0.937548 
v 0.142155 0.109044 0.825737 
v 0.34494 0.109044 -0.597513 
v 0.400298 0.111932 -6.27152e-05 
v 0.486703 -0.0378085 2.12745e-08 
v 0.41749 -0.0378085 -0.625032 
v 0.301833 -0.166814 -0.8483 
v 0.162234 -0.166814 -0.937548 
v 0.162234 -0.0378086 -0.937548 
v 0.301833 -0.0378085 -0.8483 
v -0.397729 -0.0378087 0.625032 
v -0.471027 -0.0378087 0.312516 
v -0.471027 -0.166814 0.312516 
v -0.397729 -0.166814 0.625032 
v -0.471027 -0.166814 0.312516 
v -0.486703 -0.166814 -2.12745e-08 
v -0.399646 -0.2 -6.2765e-05 
v -0.337114 -0.19936 0.592807 
v 0.264997 0.0916273 0.771395 
v 0.289357 -0.0378085 0.816182 
v 0.178704 0.109044 -0.830505 
v -0.0302185 -0.0378086 -0.937548 
v -0.0734974 0.109044 -0.830505 
v -0.342261 -0.166814 -0.625032 
v -0.446857 -0.166814 -0.312516 
v -0.342261 -0.0378086 -0.625032 
v -0.289313 -0.166814 0.816175 
v -0.162234 -0.166814 0.937548 
v -0.289313 -0.0378086 0.816175 
v 0.142155 -0.19936 0.825737 
v 0.126527 -0.166814 0.937548 
v -0.162234 -0.166814 0.937548 
v -0.275283 -0.1955 0.771391 
v 0.394842 -0.0378085 0.625032 
v 0.327943 0.109044 0.592808 
v 0.486703 -0.166814 2.12745e-08 
v 0.394842 -0.166814 0.625032 
v 0.327943 -0.19936 0.592808 
v 0.400298 -0.2 -6.27152e-05 
v -0.218831 -0.0378086 -0.8483 
v -0.0302184 -0.166814 -0.937548 
v -0.218831 -0.166814 -0.8483 
v -0.0734974 -0.19936 -0.830505 
v -0.0302184 -0.166814 -0.937548 
v 0.162234 -0.166814 -0.937548 
v 0.285881 -0.1955 -0.787008 
v 0.41749 -0.166814 -0.625032 
v 0.34494 -0.19936 -0.597513 
v 0.41749 -0.166814 -0.625032 
v -0.446857 -0.166814 -0.312516 
v -0.337114 0.109044 0.592807 
v -0.38866 0.111794 0.308541 
v -0.196493 0.167794 0.606096 
v 0.301833 -0.166814 -0.8483 
v -0.28124 0.109044 -0.597513 
v -0.342261 -0.166814 -0.625032 
v -0.198325 -0.1955 -0.787008 
v 0.289358 -0.166814 0.816182 
v -0.275283 0.0916272 0.771391 
v 0.285881 0.0916273 -0.787008 
v 0.202454 0.167794 -0.607769 
v -0.486703 -0.166814 -2.12745e-08 
v -0.198325 0.0916272 -0.787008 
v 0.394842 -0.166814 0.625032 
v 0.486703 -0.166814 2.12745e-08 
v 0.126527 -0.166814 0.937548 
v -0.397729 -0.166814 0.625032 
v -0.289313 -0.166814 0.816175 
v -0.218831 -0.166814 -0.8483 
v 0.289358 -0.166814 0.816182 

vn 0.204724 0.968504 0.15748 
vn 0.228346 0.976378 0 
vn 0 1 0 
vn 0 0.984252 0.15748 
vn 0 0.984252 -0.15748 
vn -0.204724 0.96063 -0.173228 
vn -0.228346 0.976378 -0.00787402 
vn -0.944882 0.251969 -0.212598 
vn -0.968504 0.251969 -0.0393701 
vn -0.677165 0.732283 -0.0314961 
vn -0.661417 0.740157 -0.149606 
vn -0.244094 0.771654 0.590551 
vn -0.338583 0.283465 0.897638 
vn 0.275591 0.275591 0.92126 
vn 0.181102 0.787402 0.582677 
vn 0.661417 0.732283 -0.173228 
vn 0.685039 0.732283 0.00787402 
vn 0.968504 0.251969 0.015748 
vn 0.937008 0.220472 -0.267717 
vn 0.637795 -0.488189 -0.590551 
vn 0.220472 -0.559055 -0.795276 
vn 0.251969 0.283465 -0.929134 
vn 0.708661 0.204724 -0.677165 
vn -0.92126 0.19685 0.338583 
vn -0.96063 0.23622 0.125984 
vn -0.818898 -0.566929 0.110236 
vn -0.795276 -0.511811 0.314961 
vn -0.818898 -0.566929 0.110236 
vn -0.834646 -0.551181 -0.0314961 
vn -0.188976 -0.984252 -0.00787402 
vn -0.228346 -0.968504 0.0787402 
vn 0.606299 0.637795 0.480315 
vn 0.748031 0.188976 0.637795 
vn 0.204724 0.779528 -0.590551 
vn -0.188976 0.275591 -0.944882 
vn -0.165354 0.779528 -0.606299 
vn -0.76378 -0.559055 -0.322835 
vn -0.787402 -0.590551 -0.181102 
vn -0.897638 0.212598 -0.385827 
vn -0.708661 -0.440945 0.551181 
vn -0.299213 -0.551181 0.779528 
vn -0.755906 0.181102 0.629921 
vn 0.0866142 -0.984252 0.173228 
vn 0.251969 -0.543307 0.80315 
vn -0.299213 -0.551181 0.779528 
vn -0.338583 -0.92126 0.204724 
vn 0.92126 0.228346 0.314961 
vn 0.677165 0.708661 0.204724 
vn 0.834646 -0.543307 0.015748 
vn 0.811024 -0.519685 0.275591 
vn 0.220472 -0.976378 0.0708661 
vn 0.19685 -0.984252 0 
vn -0.661417 0.212598 -0.716535 
vn -0.173228 -0.551181 -0.818898 
vn -0.582677 -0.496063 -0.645669 
vn -0.0551181 -0.984252 -0.149606 
vn -0.173228 -0.551181 -0.818898 
vn 0.220472 -0.559055 -0.795276 
vn 0.291339 -0.937008 -0.173228 
vn 0.811024 -0.527559 -0.244094 
vn 0.173228 -0.984252 -0.0551181 
vn 0.811024 -0.527559 -0.244094 
vn -0.787402 -0.590551 -0.181102 
vn -0.669291 0.708661 0.220472 
vn -0.669291 0.740157 0.0787402 
vn -0.220472 0.96063 0.173228 
vn 0.637795 -0.488189 -0.590551 
vn -0.661417 0.700787 -0.267717 
vn -0.76378 -0.559055 -0.322835 
vn -0.212598 -0.96063 -0.181102 
vn 0.629921 -0.551181 0.551181 
vn -0.566929 0.653543 0.496063 
vn 0.551181 0.692913 -0.472441 
vn 0.220472 0.96063 -0.15748 
vn -0.834646 -0.551181 -0.0314961 
vn -0.551181 0.653543 -0.519685 
vn 0.811024 -0.519685 0.275591 
vn 0.834646 -0.543307 0.015748 
vn 0.251969 -0.543307 0.80315 
vn -0.795276 -0.511811 0.314961 
vn -0.708661 -0.440945 0.551181 
vn -0.582677 -0.496063 -0.645669 
vn 0.629921 -0.551181 0.551181 

vt 0.364197 0.226799 
vt 0.378971 0.465389 
vt 0.290637 0.464531 
vt 0.289366 0.22409 
vt 0.300633 0.705187 
vt 0.233495 0.702947 
vt 0.202344 0.46354 
vt 0.0737225 0.594405 
vt 0.0575515 0.463814 
vt 0.126066 0.463022 
vt 0.141353 0.586323 
vt 0.228133 0.135548 
vt 0.222593 0.0648064 
vt 0.353339 0.0660077 
vt 0.350786 0.137239 
vt 0.428437 0.704739 
vt 0.455318 0.466225 
vt 0.523418 0.466357 
vt 0.489822 0.726597 
vt 0.474409 0.873393 
vt 0.375589 0.928529 
vt 0.357797 0.8658 
vt 0.431053 0.827031 
vt 0.0969105 0.199612 
vt 0.0661811 0.332907 
vt 0.0086646 0.322967 
vt 0.0430263 0.171916 
vt 0.609778 0.555607 
vt 0.589026 0.425294 
vt 0.627743 0.421313 
vt 0.679845 0.666387 
vt 0.400549 0.157023 
vt 0.435379 0.11681 
vt 0.356974 0.795458 
vt 0.265179 0.865764 
vt 0.256622 0.79395 
vt 0.0619198 0.757413 
vt 0.01745 0.608813 
vt 0.113999 0.728179 
vt 0.109013 0.0646299 
vt 0.207479 0.00394225 
vt 0.150812 0.112353 
vt 0.889283 0.742522 
vt 0.888893 0.791858 
vt 0.767536 0.803963 
vt 0.713399 0.738287 
vt 0.486948 0.205489 
vt 0.426977 0.229397 
vt 0.998832 0.377441 
vt 0.98803 0.652569 
vt 0.956239 0.636918 
vt 0.960198 0.385872 
vt 0.176285 0.824767 
vt 0.254941 0.929108 
vt 0.14012 0.873892 
vt 0.726716 0.0597061 
vt 0.739283 0.0109227 
vt 0.820139 0.00312585 
vt 0.877987 0.0619755 
vt 0.546039 0.748074 
vt 0.910874 0.138564 
vt 0.942363 0.122964 
vt 0.592729 0.292475 
vt 0.155154 0.225926 
vt 0.133577 0.340093 
vt 0.215428 0.225235 
vt 0.88392 0.0334747 
vt 0.17205 0.702157 
vt 0.622281 0.157174 
vt 0.676747 0.0834197 
vt 0.951713 0.73308 
vt 0.183133 0.15414 
vt 0.401134 0.780906 
vt 0.367537 0.704544 
vt 0 0.465939 
vt 0.206286 0.778283 
vt 0.543759 0.18774 
vt 0.581009 0.460747 
vt 0.372393 0.00618404 
vt 0.653227 0.683646 
vt 0.706878 0.760302 
vt 0.663062 0.0571073 
vt 0.480263 0.0723574 

usemtl Bread1Mtl

f 1/1/1 2/2/2 3/3/3 
f 3/3/3 4/4/4 1/1/1 
f 3/3/3 5/5/5 6/6/6 
f 6/6/6 7/7/7 3/3/3 
f 8/8/8 9/9/9 10/10/10 
f 10/10/10 11/11/11 8/8/8 
f 12/12/12 13/13/13 14/14/14 
f 14/14/14 15/15/15 12/12/12 
f 16/16/16 17/17/17 18/18/18 
f 18/18/18 19/19/19 16/16/16 
f 20/20/20 21/21/21 22/22/22 
f 22/22/22 23/23/23 20/20/20 
f 24/24/24 25/25/25 26/26/26 
f 26/26/26 27/27/27 24/24/24 
f 28/28/28 29/29/29 30/30/30 
f 30/30/30 31/31/31 28/28/28 
f 32/32/32 15/15/15 14/14/14 
f 14/14/14 33/33/33 32/32/32 
f 34/34/34 22/22/22 35/35/35 
f 35/35/35 36/36/36 34/34/34 
f 37/37/37 38/38/38 8/8/8 
f 8/8/8 39/39/39 37/37/37 
f 40/40/40 41/41/41 13/13/13 
f 13/13/13 42/42/42 40/40/40 
f 43/43/43 44/44/44 45/45/45 
f 45/45/45 46/46/46 43/43/43 
f 47/47/47 18/18/18 48/48/48 
f 49/49/49 50/50/50 51/51/51 
f 51/51/51 52/52/52 49/49/49 
f 53/53/53 35/35/35 54/54/54 
f 54/54/54 55/55/55 53/53/53 
f 56/56/56 57/57/57 58/58/58 
f 58/58/58 59/59/59 56/56/56 
f 7/7/7 6/6/6 11/11/11 
f 11/11/11 10/10/10 7/7/7 
f 15/15/15 1/1/1 4/4/4 
f 4/4/4 12/12/12 15/15/15 
f 23/23/23 19/19/19 60/60/60 
f 60/60/60 20/20/20 23/23/23 
f 52/52/52 61/61/61 62/62/62 
f 62/62/62 49/49/49 52/52/52 
f 17/17/17 16/16/16 2/2/2 
f 36/36/36 6/6/6 5/5/5 
f 5/5/5 34/34/34 36/36/36 
f 29/29/29 63/63/63 30/30/30 
f 25/25/25 24/24/24 64/64/64 
f 64/64/64 65/65/65 25/25/25 
f 66/66/66 7/7/7 65/65/65 
f 65/65/65 64/64/64 66/66/66 
f 61/61/61 59/59/59 67/67/67 
f 67/67/67 62/62/62 61/61/61 
f 48/48/48 32/32/32 33/33/33 
f 33/33/33 47/47/47 48/48/48 
f 48/48/48 17/17/17 2/2/2 
f 2/2/2 1/1/1 48/48/48 
f 11/11/11 68/68/68 39/39/39 
f 39/39/39 8/8/8 11/11/11 
f 63/63/63 69/69/69 70/70/70 
f 70/70/70 30/30/30 63/63/63 
f 71/71/71 51/51/51 50/50/50 
f 12/12/12 72/72/72 42/42/42 
f 42/42/42 13/13/13 12/12/12 
f 64/64/64 72/72/72 12/12/12 
f 12/12/12 66/66/66 64/64/64 
f 16/16/16 73/73/73 34/34/34 
f 34/34/34 74/74/74 16/16/16 
f 19/19/19 23/23/23 73/73/73 
f 73/73/73 16/16/16 19/19/19 
f 9/9/9 8/8/8 38/38/38 
f 38/38/38 75/75/75 9/9/9 
f 1/1/1 15/15/15 32/32/32 
f 32/32/32 48/48/48 1/1/1 
f 43/43/43 46/46/46 31/31/31 
f 51/51/51 43/43/43 31/31/31 
f 52/52/52 51/51/51 31/31/31 
f 52/52/52 31/31/31 30/30/30 
f 52/52/52 30/30/30 70/70/70 
f 70/70/70 56/56/56 59/59/59 
f 52/52/52 70/70/70 59/59/59 
f 61/61/61 52/52/52 59/59/59 
f 53/53/53 39/39/39 68/68/68 
f 68/68/68 76/76/76 53/53/53 
f 76/76/76 36/36/36 35/35/35 
f 35/35/35 53/53/53 76/76/76 
f 34/34/34 73/73/73 23/23/23 
f 23/23/23 22/22/22 34/34/34 
f 18/18/18 47/47/47 77/77/77 
f 77/77/77 78/78/78 18/18/18 
f 78/78/78 60/60/60 19/19/19 
f 19/19/19 18/18/18 78/78/78 
f 22/22/22 21/21/21 54/54/54 
f 54/54/54 35/35/35 22/22/22 
f 79/79/79 14/14/14 13/13/13 
f 13/13/13 41/41/41 79/79/79 
f 27/27/27 40/40/40 42/42/42 
f 42/42/42 24/24/24 27/27/27 
f 6/6/6 36/36/36 76/76/76 
f 76/76/76 68/68/68 6/6/6 
f 80/80/80 28/28/28 31/31/31 
f 45/45/45 81/81/81 46/46/46 
f 74/74/74 2/2/2 16/16/16 
f 71/71/71 43/43/43 51/51/51 
f 71/71/71 44/44/44 43/43/43 
f 56/56/56 70/70/70 82/82/82 
f 82/82/82 57/57/57 56/56/56 
f 79/79/79 83/83/83 33/33/33 
f 33/33/33 14/14/14 79/79/79 
f 17/17/17 48/48/48 18/18/18 
f 7/7/7 4/4/4 3/3/3 
f 47/47/47 33/33/33 83/83/83 
f 83/83/83 77/77/77 47/47/47 
f 72/72/72 64/64/64 24/24/24 
f 24/24/24 42/42/42 72/72/72 
f 65/65/65 10/10/10 9/9/9 
f 9/9/9 25/25/25 65/65/65 
f 75/75/75 26/26/26 25/25/25 
f 25/25/25 9/9/9 75/75/75 
f 55/55/55 37/37/37 39/39/39 
f 39/39/39 53/53/53 55/55/55 
f 31/31/31 46/46/46 81/81/81 
f 81/81/81 80/80/80 31/31/31 
f 69/69/69 82/82/82 70/70/70 
f 58/58/58 67/67/67 59/59/59 
f 68/68/68 11/11/11 6/6/6 
f 10/10/10 65/65/65 7/7/7 
f 4/4/4 7/7/7 66/66/66 
f 4/4/4 66/66/66 12/12/12 
f 5/5/5 74/74/74 34/34/34 
f 2/2/2 74/74/74 5/5/5 
f 2/2/2 5/5/5 3/3/3 

